<svg xmlns="http://www.w3.org/2000/svg" xmlns:xlink="http://www.w3.org/1999/xlink" width="2996" zoomAndPan="magnify" viewBox="0 0 2247 599.999999" height="800" preserveAspectRatio="xMidYMid meet" version="1.0"><defs><g/></defs><g fill="#1e2a39" fill-opacity="1"><g transform="translate(323.012764, 516.597747)"><g><path d="M 163.21875 6.09375 C 136.820312 6.09375 113.375 0.507812 92.875 -10.65625 C 72.375 -21.820312 56.234375 -37.351562 44.453125 -57.25 C 32.679688 -77.144531 26.796875 -100.285156 26.796875 -126.671875 C 26.796875 -151.035156 33.085938 -173.265625 45.671875 -193.359375 C 58.265625 -213.460938 74.910156 -229.5 95.609375 -241.46875 C 116.316406 -253.445312 138.851562 -259.4375 163.21875 -259.4375 C 189.601562 -259.4375 213.046875 -253.851562 233.546875 -242.6875 C 254.054688 -231.519531 270.195312 -215.988281 281.96875 -196.09375 C 293.75 -176.207031 299.640625 -153.066406 299.640625 -126.671875 C 299.640625 -102.316406 293.34375 -80.085938 280.75 -59.984375 C 268.164062 -39.890625 251.519531 -23.851562 230.8125 -11.875 C 210.101562 0.101562 187.570312 6.09375 163.21875 6.09375 Z M 163.21875 -57.25 C 183.519531 -57.25 199.960938 -63.945312 212.546875 -77.34375 C 225.128906 -90.738281 231.421875 -107.179688 231.421875 -126.671875 C 231.421875 -146.972656 225.128906 -163.617188 212.546875 -176.609375 C 199.960938 -189.609375 183.519531 -196.109375 163.21875 -196.109375 C 143.726562 -196.109375 127.484375 -189.609375 114.484375 -176.609375 C 101.492188 -163.617188 95 -146.972656 95 -126.671875 C 95 -107.179688 101.492188 -90.738281 114.484375 -77.34375 C 127.484375 -63.945312 143.726562 -57.25 163.21875 -57.25 Z M 163.21875 -57.25 "/></g></g></g><g fill="#1e2a39" fill-opacity="1"><g transform="translate(622.042243, 516.597747)"><g><path d="M 163.21875 6.09375 C 136.820312 6.09375 113.375 0.507812 92.875 -10.65625 C 72.375 -21.820312 56.234375 -37.351562 44.453125 -57.25 C 32.679688 -77.144531 26.796875 -100.285156 26.796875 -126.671875 C 26.796875 -151.035156 32.882812 -173.265625 45.0625 -193.359375 C 57.25 -213.460938 73.390625 -229.5 93.484375 -241.46875 C 113.578125 -253.445312 135.601562 -259.4375 159.5625 -259.4375 C 172.550781 -259.4375 185.035156 -257.8125 197.015625 -254.5625 C 208.992188 -251.320312 220.460938 -245.640625 231.421875 -237.515625 L 231.421875 -443.359375 L 299.640625 -443.359375 L 299.640625 -126.671875 C 299.640625 -102.316406 293.34375 -80.085938 280.75 -59.984375 C 268.164062 -39.890625 251.519531 -23.851562 230.8125 -11.875 C 210.101562 0.101562 187.570312 6.09375 163.21875 6.09375 Z M 163.21875 -57.25 C 183.519531 -57.25 199.960938 -63.945312 212.546875 -77.34375 C 225.128906 -90.738281 231.421875 -107.179688 231.421875 -126.671875 C 231.421875 -146.972656 225.128906 -163.617188 212.546875 -176.609375 C 199.960938 -189.609375 183.519531 -196.109375 163.21875 -196.109375 C 143.726562 -196.109375 127.484375 -189.609375 114.484375 -176.609375 C 101.492188 -163.617188 95 -146.972656 95 -126.671875 C 95 -107.179688 101.492188 -90.738281 114.484375 -77.34375 C 127.484375 -63.945312 143.726562 -57.25 163.21875 -57.25 Z M 163.21875 -57.25 "/></g></g></g><g fill="#1e2a39" fill-opacity="1"><g transform="translate(928.380015, 516.597747)"><g><path d="M 79.171875 -365.40625 C 67.804688 -365.40625 57.859375 -369.664062 49.328125 -378.1875 C 40.804688 -386.71875 36.546875 -396.671875 36.546875 -408.046875 C 36.546875 -419.816406 40.804688 -429.660156 49.328125 -437.578125 C 57.859375 -445.492188 67.804688 -449.453125 79.171875 -449.453125 C 90.941406 -449.453125 100.785156 -445.492188 108.703125 -437.578125 C 116.617188 -429.660156 120.578125 -419.816406 120.578125 -408.046875 C 120.578125 -396.671875 116.617188 -386.71875 108.703125 -378.1875 C 100.785156 -369.664062 90.941406 -365.40625 79.171875 -365.40625 Z M 43.84375 0 L 43.84375 -253.34375 L 112.0625 -253.34375 L 112.0625 0 Z M 43.84375 0 "/></g></g></g><g fill="#1e2a39" fill-opacity="1"><g transform="translate(1056.883517, 516.597747)"><g><path d="M 157.125 6.09375 C 131.550781 6.09375 109.019531 0.507812 89.53125 -10.65625 C 70.039062 -21.820312 54.710938 -37.351562 43.546875 -57.25 C 32.378906 -77.144531 26.796875 -100.285156 26.796875 -126.671875 C 26.796875 -151.035156 33.085938 -173.265625 45.671875 -193.359375 C 58.265625 -213.460938 74.910156 -229.5 95.609375 -241.46875 C 116.316406 -253.445312 138.851562 -259.4375 163.21875 -259.4375 C 189.601562 -259.4375 213.046875 -253.851562 233.546875 -242.6875 C 254.054688 -231.519531 270.195312 -215.988281 281.96875 -196.09375 C 293.75 -176.207031 299.640625 -153.066406 299.640625 -126.671875 L 299.640625 0 L 232.640625 0 L 232.640625 -21.921875 C 224.929688 -13.398438 214.375 -6.597656 200.96875 -1.515625 C 187.570312 3.554688 172.957031 6.09375 157.125 6.09375 Z M 163.21875 -57.25 C 183.519531 -57.25 199.960938 -63.945312 212.546875 -77.34375 C 225.128906 -90.738281 231.421875 -107.179688 231.421875 -126.671875 C 231.421875 -146.972656 225.128906 -163.617188 212.546875 -176.609375 C 199.960938 -189.609375 183.519531 -196.109375 163.21875 -196.109375 C 143.726562 -196.109375 127.484375 -189.609375 114.484375 -176.609375 C 101.492188 -163.617188 95 -146.972656 95 -126.671875 C 95 -107.179688 101.492188 -90.738281 114.484375 -77.34375 C 127.484375 -63.945312 143.726562 -57.25 163.21875 -57.25 Z M 163.21875 -57.25 "/></g></g></g><g fill="#1e2a39" fill-opacity="1"><g transform="translate(1368.093402, 516.597747)"><g><path d="M 41.40625 0 L 41.40625 -443.359375 L 109.625 -443.359375 L 109.625 0 Z M 41.40625 0 "/></g></g></g><g fill="#1e2a39" fill-opacity="1"><g transform="translate(1491.724744, 516.597747)"><g><path d="M 41.40625 0 L 41.40625 -443.359375 L 109.625 -443.359375 L 109.625 0 Z M 41.40625 0 "/></g></g></g><g fill="#1e2a39" fill-opacity="1"><g transform="translate(1615.356178, 516.597747)"><g><path d="M 163.21875 6.09375 C 136.820312 6.09375 113.375 0.507812 92.875 -10.65625 C 72.375 -21.820312 56.234375 -37.351562 44.453125 -57.25 C 32.679688 -77.144531 26.796875 -100.285156 26.796875 -126.671875 C 26.796875 -151.035156 33.085938 -173.265625 45.671875 -193.359375 C 58.265625 -213.460938 74.910156 -229.5 95.609375 -241.46875 C 116.316406 -253.445312 138.851562 -259.4375 163.21875 -259.4375 C 189.601562 -259.4375 213.046875 -253.851562 233.546875 -242.6875 C 254.054688 -231.519531 270.195312 -215.988281 281.96875 -196.09375 C 293.75 -176.207031 299.640625 -153.066406 299.640625 -126.671875 C 299.640625 -102.316406 293.34375 -80.085938 280.75 -59.984375 C 268.164062 -39.890625 251.519531 -23.851562 230.8125 -11.875 C 210.101562 0.101562 187.570312 6.09375 163.21875 6.09375 Z M 163.21875 -57.25 C 183.519531 -57.25 199.960938 -63.945312 212.546875 -77.34375 C 225.128906 -90.738281 231.421875 -107.179688 231.421875 -126.671875 C 231.421875 -146.972656 225.128906 -163.617188 212.546875 -176.609375 C 199.960938 -189.609375 183.519531 -196.109375 163.21875 -196.109375 C 143.726562 -196.109375 127.484375 -189.609375 114.484375 -176.609375 C 101.492188 -163.617188 95 -146.972656 95 -126.671875 C 95 -107.179688 101.492188 -90.738281 114.484375 -77.34375 C 127.484375 -63.945312 143.726562 -57.25 163.21875 -57.25 Z M 163.21875 -57.25 "/></g></g></g></svg>